<svg width="512" height="512" viewBox="0 0 512 512" fill="none" xmlns="http://www.w3.org/2000/svg">
<path fill-rule="evenodd" clip-rule="evenodd" d="M342.198 78.4252L328.363 90.8322L379.127 146.665L392.962 134.258L342.198 78.4252ZM285.895 71.9151L276.401 90.1023L350.275 133.453L359.769 115.266L285.895 71.9151ZM392.963 275.095L328.363 211.608L379.128 155.775L443.728 219.262L392.963 275.095ZM314.529 252.376L276.401 217.239L350.275 173.888L388.403 209.025L314.529 252.376ZM271.654 90.1023L280.292 108.837L203.961 153.996L195.323 135.261L271.654 90.1023ZM320.725 90.8322L334.56 78.4252L280.293 18.3751L266.458 30.7821L320.725 90.8322ZM169.823 211.608L119.058 155.775L183.658 219.262L234.423 275.095L169.823 211.608ZM177.19 173.889L250.208 217.239L212.936 252.376L139.918 209.026L177.19 173.889ZM248.773 433.347L240.135 414.612L316.466 369.453L325.104 388.188L248.773 433.347ZM271.654 417.243L263.872 435.978L337.746 479.329L345.528 460.594L271.654 417.243ZM197.583 421.421L183.748 433.828L238.015 493.875L251.85 481.468L197.583 421.421ZM177.19 346.504L139.918 311.367L212.936 268.017L250.208 303.154L177.19 346.504ZM119.058 352.618L169.823 296.784L234.423 360.271L183.658 416.104L119.058 352.618ZM388.403 303.154L350.275 346.504L276.401 303.154L314.529 268.017L388.403 303.154ZM379.128 352.618L328.363 296.784L392.963 360.271L443.728 416.104L379.128 352.618ZM345.528 435.978L337.746 417.243L263.872 460.594L271.654 479.329L345.528 435.978ZM316.466 414.612L325.104 433.347L248.773 388.188L240.135 369.453L316.466 414.612ZM251.85 433.828L238.015 421.421L183.748 481.468L197.583 493.875L251.85 433.828Z" fill="white"/>
</svg>