<svg width="512" height="512" viewBox="0 0 512 512" fill="none" xmlns="http://www.w3.org/2000/svg">
<path fill-rule="evenodd" clip-rule="evenodd" d="M280 252C312 264 336 294 336 330C336 377 297 416 250 416C203 416 164 377 164 330C164 283 203 244 250 244C259 244 268 246 276 249C274 253 271 257 280 252ZM332 144C332 170 311 192 284 192C257 192 236 170 236 144C236 118 257 96 284 96C311 96 332 118 332 144Z" fill="white"/>
<path fill-rule="evenodd" clip-rule="evenodd" d="M105 169C105 115 149 72 203 72C257 72 300 115 300 169C300 223 257 266 203 266C149 266 105 223 105 169ZM216 169C216 159 208 151 198 151C188 151 180 159 180 169C180 179 188 187 198 187C208 187 216 179 216 169Z" fill="white"/>
</svg>