<svg width="512" height="512" viewBox="0 0 512 512" fill="none" xmlns="http://www.w3.org/2000/svg">
<path fill-rule="evenodd" clip-rule="evenodd" d="M352.258 395.394C358.584 372.263 346.305 324.71 346.305 324.71C346.305 324.71 337.399 363.449 323.483 377.767C311.611 389.98 297.066 398.451 276.206 400.677C293.261 392.393 304.99 375.12 304.99 355.155C304.99 327.129 281.878 304.409 253.368 304.409C224.858 304.409 201.745 327.129 201.745 355.155C201.745 357.77 201.949 360.338 202.343 362.84C169.259 339.975 156.913 304.409 156.913 304.409C156.913 304.409 147.029 360.345 160.795 395.394C172.248 424.985 207.374 447.757 255.918 447.757C304.462 447.757 335.837 422.35 352.258 395.394ZM255.918 141.03C255.918 141.03 246.029 88.6148 159.762 64.2437C73.4948 39.8726 31 141.03 31 141.03C31 141.03 69.7362 139.219 96.8628 159.687C124.004 180.164 130.289 216.799 130.289 216.799C130.289 216.799 167.137 182.728 255.918 182.728C344.699 182.728 381.547 216.799 381.547 216.799C381.547 216.799 387.832 180.164 414.973 159.687C442.099 139.219 480.836 141.03 480.836 141.03C480.836 141.03 438.341 39.8726 352.074 64.2437C265.807 88.6148 255.918 141.03 255.918 141.03Z" fill="white"/>
</svg>