<svg width="512" height="512" viewBox="0 0 512 512" fill="none" xmlns="http://www.w3.org/2000/svg">
<path fill-rule="evenodd" clip-rule="evenodd" d="M178.712 477.733C253.715 477.733 317.927 436.048 344.436 376.956C344.436 376.956 279.365 412.937 178.712 412.937C78.0593 412.937 0 349.771 0 349.771C0 349.771 39.7631 477.733 178.712 477.733ZM253.783 0C187.625 0 125.229 33.9838 95.6863 82.6182C95.6863 82.6182 193.192 65.1885 253.783 65.1885C314.374 65.1885 427.826 142.221 427.826 142.221C427.826 142.221 426.863 0 253.783 0Z" fill="white"/>
<path fill-rule="evenodd" clip-rule="evenodd" d="M373.276 262.642C373.276 262.642 313.772 225.599 253.783 225.599C193.794 225.599 95.6863 247.105 95.6863 247.105C95.6863 247.105 176.619 305.922 253.783 305.922C330.947 305.922 373.276 262.642 373.276 262.642Z" fill="white"/>
</svg>