<svg width="512" height="512" viewBox="0 0 512 512" fill="none" xmlns="http://www.w3.org/2000/svg">
<path fill-rule="evenodd" clip-rule="evenodd" d="M368.952 510.227C322.769 512.591 269.896 512.591 251.928 510.227C111.77 491.002 0 389.391 0 261.191C0 116.997 114.615 0 256 0C397.385 0 512 116.997 512 261.191C512 389.391 400.23 491.002 368.952 510.227ZM220.456 81.619C158.485 81.619 108.105 132 108.105 193.971C108.105 255.941 158.485 306.322 220.456 306.322C282.426 306.322 332.807 255.941 332.807 193.971C332.807 132 282.426 81.619 220.456 81.619ZM343.725 261.191C343.725 199.22 394.106 148.84 456.076 148.84C456.076 148.84 431.165 306.322 343.725 261.191Z" fill="white"/>
</svg>