<svg width="512" height="512" viewBox="0 0 512 512" fill="none" xmlns="http://www.w3.org/2000/svg">
<path fill-rule="evenodd" clip-rule="evenodd" d="M256 0C388.8 0 496 107.2 496 240C496 372.8 388.8 480 256 480C123.2 480 16 372.8 16 240C16 107.2 123.2 0 256 0ZM256 464C379.7 464 480 363.7 480 240C480 116.3 379.7 16 256 16C132.3 16 32 116.3 32 240C32 363.7 132.3 464 256 464ZM208 192C208 209.7 193.7 224 176 224C158.3 224 144 209.7 144 192C144 174.3 158.3 160 176 160C193.7 160 208 174.3 208 192ZM368 192C368 209.7 353.7 224 336 224C318.3 224 304 209.7 304 192C304 174.3 318.3 160 336 160C353.7 160 368 174.3 368 192ZM256 416C176.5 416 112 351.5 112 272V240H400V272C400 351.5 335.5 416 256 416Z" fill="white"/>
</svg>