<svg width="512" height="512" viewBox="0 0 512 512" fill="none" xmlns="http://www.w3.org/2000/svg">
<path fill-rule="evenodd" clip-rule="evenodd" d="M112.764 439.754C112.625 439.754 112.528 439.617 112.574 439.486L243.289 70.134C243.318 70.0537 243.394 70 243.48 70H383.65C383.736 70 383.811 70.0541 383.841 70.1349L511.313 439.487C511.358 439.618 511.261 439.754 511.123 439.754H112.764ZM157.724 382.733C157.586 382.733 157.488 382.597 157.534 382.466L242.674 146.087C242.703 146.007 242.778 145.953 242.865 145.953H383.582C383.668 145.953 383.743 146.007 383.772 146.087L467.883 382.466C467.929 382.597 467.831 382.733 467.693 382.733H157.724Z" fill="white"/>
<path fill-rule="evenodd" clip-rule="evenodd" d="M0.877075 439.754C0.738402 439.754 0.641312 439.618 0.686802 439.486L131.402 70.134C131.431 70.0537 131.506 70 131.593 70H271.763C271.85 70 271.925 70.0541 271.954 70.1349L399.426 439.487C399.472 439.618 399.375 439.754 399.236 439.754H0.877075Z" fill="white"/>
</svg>