<svg width="512" height="512" viewBox="0 0 512 512" fill="none" xmlns="http://www.w3.org/2000/svg">
<path fill-rule="evenodd" clip-rule="evenodd" d="M384.304 39.0418L385.879 177.392L265.209 235.319L263.721 104.69L384.304 39.0418Z" fill="white"/>
<path fill-rule="evenodd" clip-rule="evenodd" d="M505.269 257.047L385.814 325.374L266.288 256.939L385.752 194.187L505.269 257.047Z" fill="white"/>
<path fill-rule="evenodd" clip-rule="evenodd" d="M245.04 257.047L125.585 325.374L6.05861 256.939L125.523 194.187L245.04 257.047Z" fill="white"/>
<path fill-rule="evenodd" clip-rule="evenodd" d="M124.243 39.0418L248.229 98.7849L245.059 235.319L127.572 175.675L124.243 39.0418Z" fill="white"/>
<path fill-rule="evenodd" clip-rule="evenodd" d="M387.678 473.958L263.692 414.215L266.862 277.681L384.349 337.325L387.678 473.958Z" fill="white"/>
<path fill-rule="evenodd" clip-rule="evenodd" d="M128.525 473.958L126.95 335.608L247.62 277.681L249.108 408.31L128.525 473.958Z" fill="white"/>
</svg>