<svg width="512" height="512" viewBox="0 0 512 512" fill="none" xmlns="http://www.w3.org/2000/svg">
<path fill-rule="evenodd" clip-rule="evenodd" d="M455.925 425.184C455.925 425.184 391.365 476.963 262.893 455.536C165.423 439.279 113.437 331.833 113.437 274.079C113.437 137.149 214.783 105.988 283.3 105.988C351.816 105.988 396.513 172.788 396.513 224.508C396.513 276.228 359.933 321.466 303.006 321.466C246.08 321.466 229.22 281.501 229.22 244.758C229.22 208.016 258.947 195.071 286.058 195.071C313.169 195.071 322.452 218.217 322.452 238.11C322.452 258.004 307.017 265.128 294.143 265.128C281.269 265.128 279.996 258.633 275.069 251.807C270.141 244.982 281.353 219.146 262.893 219.146C244.433 219.146 240.992 248.847 240.992 248.847C240.992 248.847 247.722 306.18 303.006 305.191C358.291 304.201 384.518 261.461 384.518 222.937C384.518 184.414 355.917 130.224 286.058 130.224C216.199 130.224 143.874 174.735 143.874 276.228C143.874 377.722 230.064 449.997 309.841 449.997C389.619 449.997 469.59 397.918 455.925 425.184Z" fill="white"/>
<path fill-rule="evenodd" clip-rule="evenodd" d="M273.934 75.8944C272.029 75.8944 270.124 76.4053 268.946 77.4269C267.768 78.4486 267.273 79.8931 267.273 81.4083C267.273 82.9236 268.173 84.1675 269.173 85.189L270.271 86.0101C270.271 86.0101 274.158 89.1817 273.934 89.4025C273.71 89.6234 271.351 90.2355 271.351 90.2355L268.642 90.958L266.261 91.7909L265.162 92.1221L263.614 92.5638L262.734 93.0054L261.955 93.337L260.977 93.7787L260.307 94.2203L259.638 94.7724L258.969 95.4349L258.189 96.2077L257.52 97.2015L256.961 98.0846L256.513 99.0784L256.183 100.072L255.965 101.066L255.746 102.169L255.636 103.273L255.636 104.487L255.746 105.701L255.965 106.914L256.183 108.018L256.513 109.012L256.85 109.896L257.41 110.779L258.079 111.663L258.749 112.326L259.418 112.988L260.307 113.651L261.087 114.203L261.975 114.645L262.864 114.976L263.724 115.307L264.613 115.638L265.722 115.969L266.721 116.19L267.829 116.411L268.937 116.521L270.046 116.632L271.154 116.632L272.262 116.521L273.371 116.411L274.479 116.19L275.478 115.969L276.587 115.638L277.476 115.307L278.336 114.976L279.225 114.645L280.113 114.203L280.893 113.651L281.782 112.988L282.451 112.326L283.12 111.663L283.79 110.779L284.349 109.896L284.686 109.012L285.016 108.018L285.235 106.914L285.453 105.701L285.563 104.487L285.563 103.273L285.453 102.169L285.235 101.066L285.016 100.072L284.686 99.0784L284.239 98.0846L283.679 97.2015L283.01 96.2077L282.231 95.4349L281.561 94.7724L280.892 94.2203L280.222 93.7787L279.244 93.337L278.465 93.0054L277.585 92.5638L276.037 92.1221L274.938 91.7909L272.557 90.958L269.848 90.2355C269.848 90.2355 267.489 89.6234 267.265 89.4025C267.041 89.1817 270.928 86.0101 270.928 86.0101L272.026 85.189C273.026 84.1675 273.926 82.9236 273.926 81.4083C273.926 79.8931 273.431 78.4486 272.253 77.4269C271.075 76.4053 269.17 75.8944 267.265 75.8944H273.934Z" fill="white"/>
</svg>