<svg width="512" height="512" viewBox="0 0 512 512" fill="none" xmlns="http://www.w3.org/2000/svg">
<path fill-rule="evenodd" clip-rule="evenodd" d="M395.138 244.757C395.109 244.717 395.097 244.667 395.105 244.618L427.769 54.1518C427.784 54.0641 427.861 54 427.949 54H438.287C438.367 54 438.437 54.0517 438.461 54.1277L512.051 287.131C512.074 287.207 512.049 287.291 511.989 287.343L457.73 331.252C457.665 331.308 457.578 331.318 457.502 331.279L395.138 244.757ZM-1 371.022C-1 371.101 -0.977 371.176 -0.938 371.237L110.899 511.316C110.94 511.38 111.014 511.417 111.093 511.417H334.395C334.495 511.417 334.583 511.342 334.606 511.246L391.864 293.972C391.892 293.85 391.852 293.722 391.758 293.641L223.906 153.453C223.839 153.396 223.755 153.368 223.674 153.374L97.2195 160.75C97.115 160.758 97.0206 160.817 96.9645 160.91L0.0867335 316.237C-0.00199986 316.36 -0.0186552 316.515 0.0343583 316.65L99.839 486.188C99.9143 486.371 99.816 486.583 99.6117 486.583H12.3027C12.2107 486.583 12.1251 486.532 12.0857 486.45L-0.927583 371.191C-0.975091 371.137 -1 371.081 -1 371.022Z" fill="white"/>
</svg>