<svg width="512" height="512" viewBox="0 0 512 512" fill="none" xmlns="http://www.w3.org/2000/svg">
<path fill-rule="evenodd" clip-rule="evenodd" d="M395.138 244.757C395.109 244.717 395.097 244.667 395.105 244.618L427.769 54.1518C427.784 54.0641 427.861 54 427.949 54H438.287C438.367 54 438.437 54.0517 438.461 54.1277L512.051 287.131C512.074 287.203 512.049 287.283 511.989 287.33L457.73 329.693C457.649 329.756 457.532 329.74 457.471 329.657L395.138 244.757ZM-1 371.022C-1 371.101 -0.949204 371.171 -0.874109 371.196L110.975 407.767C111.029 407.785 111.089 407.776 111.136 407.744L361.145 235.144C361.216 235.095 361.25 235.008 361.231 234.925L318.905 62.9541C318.885 62.8708 318.808 62.8124 318.722 62.8124H143.774C143.698 62.8124 143.629 62.8583 143.603 62.9293L-0.957974 371.001C-0.98514 371.069 -1 371.022 -1 371.022ZM157.583 417.085C157.578 417.085 157.578 417.085 157.578 417.09L280.6 499.181C280.654 499.218 280.722 499.215 280.772 499.175L409.341 410.965C409.404 410.922 409.425 410.839 409.392 410.772L355.618 321.922C355.583 321.863 355.52 321.825 355.452 321.825L157.583 417.085Z" fill="white"/>
</svg>