<svg width="512" height="512" viewBox="0 0 512 512" fill="none" xmlns="http://www.w3.org/2000/svg">
<path fill-rule="evenodd" clip-rule="evenodd" d="M342.198 109.575L370.6 75.3993L324.744 42.1993L295.224 72.5993L265.614 50.3993L185.743 141.999L214.303 170.399L169.152 219.399L242.999 219.399L242.999 293.999L274.999 293.999L274.999 219.399L348.999 219.399L304.2 170.399L331.799 141.999L342.198 109.575ZM175.6 265.399L175.6 354.999L143.6 354.999L143.6 265.399L99.0003 265.399L128.4 322.799L99.0003 343.999L128.4 387.999L175.6 354.999L175.6 464.399L207.6 464.399L207.6 354.999L254.999 387.999L284.399 343.999L254.999 322.799L284.399 265.399L175.6 265.399ZM307.199 265.399L307.199 354.999L339.199 354.999L339.199 265.399L383.799 265.399L354.399 322.799L383.799 343.999L354.399 387.999L307.199 354.999L307.199 464.399L275.199 464.399L275.199 354.999L227.799 387.999L198.399 343.999L227.799 322.799L198.399 265.399L307.199 265.399Z" fill="white"/>
</svg>