<svg width="512" height="512" viewBox="0 0 512 512" fill="none" xmlns="http://www.w3.org/2000/svg">
<path fill-rule="evenodd" clip-rule="evenodd" d="M352.258 395.394C358.584 372.263 346.305 324.71 346.305 324.71C346.305 324.71 337.399 363.449 323.483 377.767C311.611 389.98 297.066 398.451 276.206 400.677C293.261 392.393 304.99 375.12 304.99 355.155C304.99 327.129 281.878 304.409 253.368 304.409C224.858 304.409 201.745 327.129 201.745 355.155C201.745 357.77 201.949 360.332 202.337 362.826C196.637 350.925 194 337.5 194 323.244C194 278.443 231.365 242.092 277.092 242.092C322.82 242.092 360.184 278.443 360.184 323.244C360.184 349.953 349.333 373.966 331.151 389.833C338.496 391.992 346.142 393.886 352.258 395.394Z" fill="white"/>
</svg>