<svg width="512" height="512" viewBox="0 0 512 512" fill="none" xmlns="http://www.w3.org/2000/svg">
<path fill-rule="evenodd" clip-rule="evenodd" d="M178.712 477.733C253.715 477.733 317.306 436.048 344.98 376.393C344.98 376.393 349.182 368.827 249.42 406.912C249.42 406.912 283.877 364.524 302.431 340.262C334.251 298.459 301.696 320.477 283.661 325.276C283.661 325.276 276.362 331.893 269.683 331.893C269.683 331.893 332.866 293.499 312.311 286.601C285.221 277.49 244.642 292.879 217.344 275.795C217.344 275.795 177.385 252.366 150.717 292.077C150.717 292.077 147.839 254.854 106.037 254.854C73.3689 254.854 43.3242 291.255 43.3242 291.255C43.3242 291.255 97.9221 268.447 105.628 313.059C105.628 313.059 -11.3421 334.645 1.4578 407.723C1.4578 407.723 20.6207 367.932 90.7856 361.421C90.7856 361.421 107.06 361.421 119.988 358.543C119.988 358.543 80.6008 399.724 82.6578 458.557C82.6578 458.557 95.9941 415.685 178.712 477.733Z" fill="white"/>
<path fill-rule="evenodd" clip-rule="evenodd" d="M342.699 152.322C342.699 152.322 321.663 155.215 310.249 147.607C310.249 147.607 347.829 131.91 358.538 93.0883C358.538 93.0883 366.426 63.0279 399.7 47.3303C434.99 30.6537 488.691 33.4871 488.691 33.4871C488.691 33.4871 440.163 66.7581 438.324 116.194C438.324 116.194 436.486 167.646 342.699 152.322Z" fill="white"/>
</svg>