<svg width="512" height="512" viewBox="0 0 512 512" fill="none" xmlns="http://www.w3.org/2000/svg">
<path fill-rule="evenodd" clip-rule="evenodd" d="M97.4121 440.649C97.4121 440.649 95.9371 440.649 95.9371 439.174C93.3081 393.039 107.061 343.339 134.935 300.429C166.41 252.741 218.13 207.799 275.855 170.026C338.905 128.795 400.745 97.6111 450.162 77.6651C450.162 77.6651 450.162 77.6651 450.162 79.1401C450.162 79.1401 449.27 79.1401 447.533 80.6151C426.695 102.346 384.763 147.589 339.797 197.289C285.672 257.641 226.213 325.718 215.501 333.559C215.501 333.559 213.134 335.034 214.609 335.034C217.238 335.034 325.153 289.791 397.208 246.881C472.891 201.638 511.195 167.076 511.195 167.076C511.195 167.076 511.195 167.076 511.195 168.551C509.72 171.18 505.616 179.021 502.987 183.916C492.276 205.646 478.523 230.115 461.766 254.583C436.04 292.42 399.27 331.732 352.658 370.936C281.495 430.396 182.275 473.306 97.4121 440.649Z" fill="white"/>
</svg>