<svg width="512" height="512" viewBox="0 0 512 512" fill="none" xmlns="http://www.w3.org/2000/svg">
<path fill-rule="evenodd" clip-rule="evenodd" d="M427.821 393.449C479.524 352.108 512 292.376 512 225.95C512 101.161 397.385 0 256 0C114.615 0 0 101.161 0 225.95C0 292.376 32.4764 352.108 84.1793 393.449C64.0690 413.984 52.0000 443.084 52.0000 475.001C52.0000 496.093 63.9073 508 78.5001 508C89.5001 508 97.5000 497.001 99.0000 488.001C101.674 472.001 116.000 415.001 123.000 397.001C153.000 405.001 189.000 409.001 256.000 409.001C323.000 409.001 359.000 405.001 389.000 397.001C396.000 415.001 410.326 472.001 413.000 488.001C414.500 497.001 422.500 508 433.500 508C448.093 508 460.000 496.093 460.000 475.001C460.000 443.084 447.931 413.984 427.821 393.449ZM290.000 266.001C290.000 284.226 275.225 299.001 257.000 299.001C238.775 299.001 224.000 284.226 224.000 266.001C224.000 247.776 238.775 233.001 257.000 233.001C275.225 233.001 290.000 247.776 290.000 266.001ZM121.000 233.001C139.225 233.001 154.000 247.776 154.000 266.001C154.000 284.226 139.225 299.001 121.000 299.001C102.775 299.001 88.0000 284.226 88.0000 266.001C88.0000 247.776 102.775 233.001 121.000 233.001ZM393.000 233.001C411.225 233.001 426.000 247.776 426.000 266.001C426.000 284.226 411.225 299.001 393.000 299.001C374.775 299.001 360.000 284.226 360.000 266.001C360.000 247.776 374.775 233.001 393.000 233.001Z" fill="white"/>
</svg>